<?xml version="1.0" encoding="iso-8859-1"?>
<!-- Generator: Adobe Illustrator 19.0.0, SVG Export Plug-In . SVG Version: 6.00 Build 0)  -->
<svg version="1.1" id="Layer_1" xmlns="http://www.w3.org/2000/svg" xmlns:xlink="http://www.w3.org/1999/xlink" x="0px" y="0px"
	 viewBox="0 0 511.998 511.998" style="enable-background:new 0 0 511.998 511.998;" xml:space="preserve">
<path style="fill:#637189;" d="M311.653,96.66V63.443c0-10.45-8.471-18.922-18.922-18.922H219.27
	c-10.45,0-18.922,8.471-18.922,18.922V96.66c-86.517,24.231-150.014,103.551-150.26,197.747
	c-0.296,113.36,92.15,206.246,205.509,206.463c113.908,0.217,206.316-92.056,206.316-205.913
	C461.914,200.519,398.338,120.939,311.653,96.66z"/>
<path d="M267.114,511.718c0.125-0.007,0.247-0.017,0.372-0.023c53.582-2.776,103.575-24.928,141.84-63.118
	c38.43-38.358,60.708-88.565,63.43-142.398c0.001-0.026,0.003-0.051,0.004-0.078c0.081-1.624,0.14-3.253,0.186-4.884
	c0.007-0.237,0.02-0.473,0.026-0.71c0.046-1.847,0.07-3.696,0.07-5.551c0-48.317-15.537-94.047-44.934-132.245
	c-26.726-34.729-63.882-60.886-105.327-74.315V63.443c0-16.571-13.481-30.052-30.052-30.052h-22.588
	c3.857-6.643,11.031-11.13,19.249-11.13h89.043c12.275,0,22.261,9.986,22.261,22.261c0,24.549,19.972,44.522,44.522,44.522h11.13
	c6.147,0,11.13-4.984,11.13-11.13s-4.983-11.13-11.13-11.13h-11.13c-12.275,0-22.261-9.986-22.261-22.261
	C422.955,19.972,402.982,0,378.433,0H289.39c-20.707,0-38.157,14.211-43.113,33.391H219.27c-16.571,0-30.052,13.481-30.052,30.052
	v24.953c-10.984,3.558-21.663,8.021-31.932,13.291c-0.008,0.003-0.014,0.008-0.022,0.011c-4.661,2.393-9.237,4.954-13.716,7.677
	c-0.006,0.003-0.011,0.007-0.017,0.01c-22.79,13.855-43.09,31.873-59.477,53.112c-27.118,35.149-42.479,76.714-44.783,120.812
	c-0.014,0.282-0.031,0.563-0.045,0.845c-0.075,1.54-0.134,3.083-0.177,4.629c-0.007,0.245-0.018,0.488-0.024,0.732
	c-0.039,1.618-0.065,3.238-0.069,4.862c0,0.101,0.003,0.203,0.003,0.304c0,0.092-0.003,0.183-0.003,0.274
	c0,0.666,0.019,1.327,0.026,1.991c0.01,1.083,0.016,2.166,0.041,3.247c0.018,0.769,0.052,1.535,0.079,2.302
	c0.037,1.064,0.07,2.128,0.121,3.19c0.037,0.75,0.088,1.496,0.131,2.244c0.063,1.081,0.126,2.163,0.206,3.241
	c0.052,0.705,0.117,1.406,0.176,2.109c0.093,1.12,0.188,2.239,0.299,3.357c0.065,0.649,0.14,1.293,0.21,1.94
	c0.127,1.172,0.256,2.342,0.403,3.511c0.072,0.581,0.155,1.159,0.232,1.739c0.164,1.232,0.333,2.462,0.518,3.69
	c0.077,0.509,0.16,1.014,0.242,1.522c0.205,1.293,0.416,2.586,0.643,3.872c0.078,0.441,0.163,0.88,0.243,1.321
	c0.247,1.346,0.502,2.69,0.774,4.03c0.078,0.383,0.16,0.764,0.24,1.145c0.291,1.391,0.591,2.779,0.908,4.162
	c0.076,0.331,0.156,0.659,0.233,0.988c0.334,1.424,0.679,2.844,1.042,4.258c0.076,0.296,0.155,0.591,0.233,0.887
	c0.373,1.432,0.759,2.859,1.162,4.282c0.082,0.29,0.167,0.58,0.25,0.869c0.406,1.411,0.824,2.818,1.258,4.22
	c0.097,0.313,0.197,0.626,0.295,0.937c0.427,1.359,0.867,2.714,1.321,4.061c0.124,0.368,0.252,0.736,0.377,1.103
	c0.435,1.27,0.88,2.536,1.34,3.797c0.17,0.467,0.344,0.932,0.518,1.397c0.422,1.135,0.85,2.266,1.292,3.393
	c0.239,0.613,0.485,1.223,0.73,1.833c0.384,0.954,0.77,1.906,1.168,2.853c0.338,0.808,0.683,1.611,1.031,2.413
	c0.314,0.723,0.628,1.447,0.949,2.166c0.471,1.055,0.952,2.105,1.438,3.15c0.207,0.443,0.412,0.887,0.621,1.329
	c0.644,1.362,1.306,2.716,1.978,4.063c0.052,0.106,0.105,0.21,0.158,0.316c20.885,41.666,54.785,75.719,96.342,96.788
	c0.216,0.11,0.434,0.215,0.65,0.324c1.26,0.633,2.523,1.261,3.797,1.87c0.751,0.361,1.509,0.708,2.265,1.06
	c0.758,0.352,1.514,0.709,2.276,1.053c1.162,0.524,2.332,1.031,3.503,1.535c0.38,0.162,0.757,0.332,1.139,0.492
	c1.473,0.623,2.954,1.228,4.44,1.816c0.1,0.04,0.2,0.082,0.301,0.121c23.273,9.2,48.151,14.323,73.762,14.982
	c0.525,0.013,1.055,0.012,1.582,0.022c1.225,0.023,2.45,0.05,3.679,0.052c0.145,0,0.28,0,0.426,0c1.849,0,3.694-0.025,5.535-0.07
	c0.302-0.008,0.601-0.023,0.903-0.032C264.001,511.852,265.56,511.796,267.114,511.718z M211.479,63.443
	c0-4.295,3.495-7.791,7.791-7.791h73.461c4.296,0,7.791,3.496,7.791,7.791v33.218c0,4.991,3.322,9.372,8.129,10.719
	c83.685,23.437,142.132,100.572,142.132,187.577c0,1.665-0.021,3.325-0.063,4.98c-0.006,0.223-0.018,0.444-0.025,0.667
	c-0.041,1.455-0.092,2.907-0.166,4.354c-0.001,0.028-0.003,0.057-0.006,0.085c-5.094,99.396-85.047,179.347-184.442,184.44
	c-0.027,0.001-0.055,0.003-0.081,0.004c-1.461,0.075-2.927,0.126-4.397,0.168c-0.208,0.006-0.415,0.018-0.624,0.023
	c-1.654,0.039-3.314,0.061-4.979,0.061c-1.225,0-2.444-0.023-3.664-0.047c-0.48-0.009-0.961-0.008-1.439-0.02
	c-4.974-0.129-9.902-0.443-14.778-0.941c-0.033-0.003-0.067-0.008-0.099-0.011c-1.596-0.163-3.187-0.345-4.77-0.547
	c-0.085-0.011-0.168-0.023-0.253-0.035c-1.534-0.198-3.064-0.411-4.587-0.644c-0.097-0.014-0.194-0.032-0.291-0.047
	c-1.513-0.234-3.02-0.483-4.521-0.751c-0.083-0.016-0.167-0.032-0.252-0.047c-1.509-0.273-3.014-0.56-4.512-0.867
	c-0.091-0.019-0.181-0.04-0.273-0.059c-1.489-0.307-2.974-0.63-4.451-0.972c-0.096-0.022-0.19-0.047-0.286-0.069
	c-1.466-0.341-2.925-0.697-4.378-1.071c-0.131-0.033-0.26-0.07-0.392-0.105c-1.41-0.366-2.815-0.746-4.213-1.142
	c-0.193-0.055-0.384-0.115-0.578-0.169c-1.325-0.381-2.645-0.771-3.957-1.18c-0.295-0.092-0.588-0.189-0.883-0.283
	c-1.195-0.378-2.389-0.764-3.574-1.163c-0.447-0.151-0.893-0.311-1.339-0.465c-1.016-0.352-2.032-0.706-3.041-1.073
	c-0.656-0.239-1.307-0.489-1.959-0.736c-0.779-0.294-1.56-0.585-2.335-0.889c-0.937-0.368-1.869-0.748-2.8-1.131
	c-0.47-0.193-0.942-0.381-1.409-0.578c-1.304-0.548-2.602-1.11-3.895-1.686c-0.077-0.033-0.154-0.067-0.23-0.101
	c-21.596-9.672-41.483-23.368-58.733-40.698c-18.339-18.424-32.552-39.809-42.188-63.041c-0.102-0.248-0.204-0.496-0.305-0.745
	c-0.464-1.132-0.916-2.267-1.358-3.407c-0.179-0.464-0.355-0.928-0.531-1.394c-0.358-0.947-0.711-1.898-1.055-2.85
	c-0.228-0.634-0.452-1.272-0.673-1.909c-0.282-0.807-0.56-1.615-0.83-2.426c-0.256-0.768-0.505-1.539-0.752-2.312
	c-0.224-0.7-0.447-1.401-0.663-2.105c-0.267-0.868-0.524-1.741-0.779-2.613c-0.184-0.63-0.367-1.26-0.545-1.892
	c-0.263-0.934-0.514-1.872-0.762-2.812c-0.156-0.588-0.312-1.176-0.462-1.765c-0.248-0.975-0.485-1.956-0.718-2.936
	c-0.136-0.569-0.273-1.138-0.402-1.709c-0.227-0.994-0.442-1.993-0.653-2.992c-0.12-0.571-0.244-1.142-0.36-1.714
	c-0.201-0.996-0.39-1.997-0.575-2.997c-0.109-0.584-0.219-1.169-0.323-1.755c-0.174-0.985-0.334-1.975-0.493-2.965
	c-0.098-0.611-0.199-1.221-0.291-1.833c-0.146-0.968-0.277-1.941-0.408-2.914c-0.086-0.638-0.176-1.276-0.255-1.914
	c-0.119-0.951-0.223-1.904-0.327-2.858c-0.073-0.667-0.15-1.332-0.217-2c-0.092-0.932-0.17-1.869-0.249-2.805
	c-0.059-0.692-0.122-1.385-0.174-2.078c-0.068-0.924-0.121-1.851-0.177-2.777c-0.042-0.709-0.09-1.416-0.125-2.126
	c-0.046-0.925-0.073-1.854-0.106-2.783c-0.024-0.713-0.056-1.425-0.073-2.139c-0.022-0.953-0.028-1.91-0.037-2.866
	c-0.007-0.69-0.021-1.379-0.02-2.071c0.002-1.517,0.021-3.031,0.058-4.539c0.012-0.482,0.033-0.962,0.049-1.443
	c0.031-0.993,0.067-1.983,0.114-2.972c0.038-0.795,0.083-1.588,0.131-2.381c0.036-0.604,0.073-1.208,0.115-1.811
	c0.07-1.014,0.145-2.027,0.23-3.038c0.018-0.206,0.037-0.411,0.055-0.616c4.343-49.121,27.276-94.052,62.466-126.456
	c0.067-0.061,0.131-0.122,0.197-0.184c0.516-0.474,1.041-0.938,1.563-1.407c0.68-0.609,1.359-1.218,2.047-1.816
	c0.255-0.223,0.511-0.442,0.767-0.663c34.124-29.409,78.514-47.211,126.987-47.211c6.147,0,11.13-4.984,11.13-11.13
	c0-6.146-4.983-11.13-11.13-11.13c-15.257,0-30.147,1.591-44.522,4.599V63.443z"/>
<path d="M223.769,441.375c-35.771-7.836-67.405-28.56-89.075-58.356c-3.615-4.972-10.576-6.072-15.548-2.454
	c-4.971,3.615-6.071,10.576-2.455,15.548c24.879,34.206,61.215,58.004,102.314,67.007c0.802,0.176,1.603,0.259,2.392,0.259
	c5.116,0,9.722-3.548,10.862-8.751C233.576,448.626,229.774,442.69,223.769,441.375z"/>
<path d="M255.974,444.847c-6.147,0-11.13,4.984-11.13,11.13c0,6.146,4.983,11.13,11.13,11.13h0.027
	c6.147,0,11.117-4.984,11.117-11.13C267.118,449.831,262.121,444.847,255.974,444.847z"/>
<g>
</g>
<g>
</g>
<g>
</g>
<g>
</g>
<g>
</g>
<g>
</g>
<g>
</g>
<g>
</g>
<g>
</g>
<g>
</g>
<g>
</g>
<g>
</g>
<g>
</g>
<g>
</g>
<g>
</g>
</svg>
